<svg width="375" height="393" viewBox="0 0 375 393" fill="none" xmlns="http://www.w3.org/2000/svg">
<path d="M215.8 71.9263C201.007 116.76 195.874 161.235 197.188 206.906C198.879 265.721 197.759 324.6 197.641 384.862C197.631 389.926 202.817 393.768 208.469 392.87C263.094 384.2 312.489 375.333 366.561 366.751C372.122 365.871 375.539 360.865 374.053 356.058C323.401 236.576 329.568 198.522 339.705 78.6444C342.005 63.4136 344.559 48.206 347.444 33.0537C348.829 25.7518 347.52 21.1238 338.157 19.193C320.278 15.5058 302.715 10.6052 284.827 6.96465C271.773 4.30813 258.532 2.37058 244.37 0.130532C239.525 -0.635814 234.825 2.04489 233.67 6.26324C227.924 27.2576 221.941 49.1446 215.8 71.9263Z" fill="#159EE8"/>
<path d="M158.602 71.9263C173.395 116.76 178.528 161.235 177.214 206.906C175.523 265.721 176.643 324.6 176.761 384.862C176.771 389.926 171.585 393.768 165.933 392.87C111.308 384.2 61.913 375.333 7.84007 366.751C2.28111 365.871 -1.13814 360.865 0.34795 356.058C51.0013 236.576 44.835 198.522 34.6978 78.6444C32.3975 63.4136 29.8417 48.206 26.9589 33.0537C25.5715 25.7518 26.8818 21.1238 36.2455 19.193C54.1247 15.5058 71.6866 10.6052 89.5746 6.96465C102.629 4.30813 115.87 2.37058 130.032 0.130532C134.876 -0.635814 139.577 2.04489 140.732 6.26324C146.478 27.2576 152.461 49.1446 158.602 71.9263Z" fill="#159EE8"/>
</svg>
