<svg width="137" height="147" viewBox="0 0 137 147" fill="none" xmlns="http://www.w3.org/2000/svg">
<path d="M86.549 144.883C82.703 145.469 79.2865 146.003 75.4433 146.604C75.3292 145.041 75.1383 143.637 75.1374 142.233C75.12 113.762 74.8246 85.2844 75.3264 56.8216C75.4587 49.3178 77.9417 41.8304 79.5681 34.3845C82.0057 23.2242 84.6403 12.1071 87.234 0.784302C99.6904 3.63713 111.812 6.41326 124.228 9.25686C121.055 31.3485 117.479 52.537 119.375 74.0447C121.266 95.4928 129.145 115.36 136.408 135.987C119.823 138.955 103.401 141.893 86.549 144.883Z" fill="#159EE8"/>
<path d="M55.7316 28.0868C60.5297 44.5811 62.1944 60.9431 61.7684 77.7455C61.1905 100.543 61.6246 123.366 61.6246 146.784C41.0349 143.194 20.7607 139.658 0.408203 136.109C4.35007 124.197 8.2374 112.756 11.9227 101.25C19.3621 78.0218 18.7144 54.3446 15.5447 30.5584C14.798 24.955 13.9694 19.3602 13.0346 13.7857C12.5842 11.0993 13.0099 9.39666 16.0465 8.68634C21.8454 7.32983 27.541 5.5269 33.3433 4.18756C38.4267 3.01417 43.5975 2.22205 49.2674 1.16086C51.3342 9.72385 53.5005 18.6989 55.7316 28.0868Z" fill="#159EE8"/>
</svg>
